HIERARCHY
ROOT Hips
{
	OFFSET	0.00	0.00	0.00
	CHANNELS 6 Xposition Yposition Zposition Zrotation Xrotation Yrotation
	JOINT LeftUpperLeg
	{
		OFFSET	 0.100000	-0.066564	-0.000554
		CHANNELS 3 Zrotation Xrotation Yrotation
		JOINT LeftLowerLeg
		{
			OFFSET	 0.002447	-0.463436	-0.005172
			CHANNELS 3 Zrotation Xrotation Yrotation
			JOINT LeftFoot
			{
				OFFSET	-0.002447	-0.420480	-0.020576
				CHANNELS 3 Zrotation Xrotation Yrotation
				JOINT LeftToes
				{
					OFFSET	 0.003734	-0.104922	 0.126407
					CHANNELS 3 Zrotation Xrotation Yrotation
					End Site
					{
						OFFSET	 0.000000	 0.000000	 0.059955
					}
				}
			}
		}
	}
	JOINT RightUpperLeg
	{
		OFFSET	-0.100000	-0.066564	-0.000554
		CHANNELS 3 Zrotation Xrotation Yrotation
		JOINT RightLowerLeg
		{
			OFFSET	-0.002447	-0.463436	-0.005146
			CHANNELS 3 Zrotation Xrotation Yrotation
			JOINT RightFoot
			{
				OFFSET	 0.002447	-0.420479	-0.020602
				CHANNELS 3 Zrotation Xrotation Yrotation
				JOINT RightToes
				{
					OFFSET	-0.003734	-0.104922	 0.126407
					CHANNELS 3 Zrotation Xrotation Yrotation
					End Site
					{
						OFFSET	-0.000000	 0.000000	 0.059955
					}
				}
			}
		}
	}
	JOINT Spine
	{
		OFFSET	 0.000000	 0.099235	-0.012273
		CHANNELS 3 Zrotation Xrotation Yrotation
		JOINT Chest
		{
			OFFSET	-0.000001	 0.116455	-0.014223
			CHANNELS 3 Zrotation Xrotation Yrotation
			JOINT UpperChest
			{
				OFFSET	 0.000001	 0.133602	-0.016265
				CHANNELS 3 Zrotation Xrotation Yrotation
				JOINT LeftShoulder
				{
					OFFSET	 0.061058	 0.091105	 0.007056
					CHANNELS 3 Zrotation Xrotation Yrotation
					JOINT LeftUpperArm
					{
						OFFSET	 0.133942	-0.002659	-0.026009
						CHANNELS 3 Zrotation Xrotation Yrotation
						JOINT LeftLowerArm
						{
							OFFSET	 0.274047	 0.000000	 0.000000
							CHANNELS 3 Zrotation Xrotation Yrotation
							JOINT LeftHand
							{
								OFFSET	 0.276145	 0.000000	 0.000000
								CHANNELS 3 Zrotation Xrotation Yrotation
								End Site
								{
									OFFSET	 0.165687	 0.000000	 0.000000
								}
							}
						}
					}
				}
				JOINT Neck
				{
					OFFSET	 0.000000	 0.150325	 0.007929
					CHANNELS 3 Zrotation Xrotation Yrotation
					JOINT Head
					{
						OFFSET	 0.000000	 0.103218	 0.031424
						CHANNELS 3 Zrotation Xrotation Yrotation
						End Site
						{
							OFFSET	 0.000000	 0.061931	 0.018855
						}
					}
				}
				JOINT RightShoulder
				{
					OFFSET	-0.061057	 0.091105	 0.007056
					CHANNELS 3 Zrotation Xrotation Yrotation
					JOINT RightUpperArm
					{
						OFFSET	-0.133943	-0.002660	-0.026009
						CHANNELS 3 Zrotation Xrotation Yrotation
						JOINT RightLowerArm
						{
							OFFSET	-0.274047	 0.000000	 0.000000
							CHANNELS 3 Zrotation Xrotation Yrotation
							JOINT RightHand
							{
								OFFSET	-0.276145	 0.000000	 0.000000
								CHANNELS 3 Zrotation Xrotation Yrotation
								End Site
								{
									OFFSET	-0.165687	 0.000000	 0.000000
								}
							}
						}
					}
				}
			}
		}
	}
}
MOTION
Frames:    16
Frame Time: 0.03333334
-0.406100	 0.999690	 0.083940	 7.708518	 12.666510	-12.499240	 23.812270	-20.682620	 29.037940	-0.085303	 28.646350	 0.020451	 5.215210	 13.902760	 13.282980	 0.000053	-1.701831	 0.720360	-3.331883	-29.078100	 2.174518	 0.116613	 43.394030	-0.046179	-6.565651	-28.008600	-13.495820	-0.000163	 0.781145	-0.000033	 2.106199	 2.704677	-2.153473	-0.000000	 0.000000	 0.000000	 4.328724	 5.339440	-4.422071	-4.689406	-6.560513	-0.275563	-71.030870	 0.139403	-37.523140	-22.371910	 16.732950	-33.841730	 28.998630	 2.959477	 3.446242	-2.071125	 2.783037	 1.728505	-2.130159	 2.752335	 1.452813	-15.750570	-13.609030	 4.032896	 46.357840	-6.729237	 43.385270	 2.212001	 12.534860	 48.727600	-22.533720	-11.903050	-1.276792
-0.406790	 1.000790	 0.082760	 7.919475	 12.879900	-12.644990	 23.839490	-21.028010	 29.315450	-0.114412	 28.594460	 0.028618	 5.049298	 15.056480	 13.379810	-0.000568	-2.423814	 0.992147	-3.303413	-29.263610	 2.557375	 0.062002	 43.086770	-0.024218	-6.088051	-27.711410	-13.858160	-0.000474	 0.676010	-0.000295	 2.225778	 2.709576	-2.137445	-0.000000	 0.000000	 0.000000	 4.570043	 5.342039	-4.395714	-5.040698	-6.422312	 0.102262	-71.583020	-1.838475	-35.302040	-21.995760	 15.020940	-33.082940	 33.310310	-0.638744	 3.727134	-2.066971	 2.631030	 1.704391	-2.304240	 2.612304	 1.655540	-15.620140	-12.831100	 3.197498	 45.804860	-8.527078	 42.601020	 3.022487	 6.609848	 46.439450	-24.461750	-11.823690	-6.571496
-0.407510	 1.001800	 0.081630	 7.968211	 13.057830	-12.661990	 24.070000	-21.460310	 29.328690	-0.151433	 28.731700	 0.037468	 5.102489	 16.381000	 12.947260	 0.000097	-3.657210	 1.489257	-3.015848	-29.343480	 3.109944	 0.003088	 42.763850	-0.000959	-6.333807	-27.519540	-14.370310	-0.000499	 0.789601	-0.000175	 2.283797	 2.662039	-2.067057	-0.000000	 0.000000	 0.000000	 4.678549	 5.248795	-4.256630	-5.378640	-6.384719	 0.664334	-72.593480	-4.194937	-33.148190	-22.223680	 13.620000	-32.391910	 36.420960	-1.681904	 5.021178	-2.247759	 2.457580	 1.814070	-2.356889	 2.547397	 1.668144	-15.582500	-12.714280	 2.757842	 47.103720	-11.079340	 40.626920	 2.853240	 5.074763	 45.582580	-26.488930	-10.909650	-10.718740
-0.407510	 1.001800	 0.081630	 7.968211	 13.057830	-12.661990	 24.070000	-21.460310	 29.328690	-0.151433	 28.731700	 0.037468	 5.102489	 16.381000	 12.947260	 0.000097	-3.657210	 1.489257	-3.015848	-29.343480	 3.109944	 0.003088	 42.763850	-0.000959	-6.333807	-27.519540	-14.370310	-0.000499	 0.789601	-0.000175	 2.283797	 2.662039	-2.067057	-0.000000	 0.000000	 0.000000	 4.678549	 5.248795	-4.256630	-5.378640	-6.384719	 0.664334	-72.593480	-4.194937	-33.148190	-22.223680	 13.620000	-32.391910	 36.420960	-1.681904	 5.021178	-2.247759	 2.457580	 1.814070	-2.356889	 2.547397	 1.668144	-15.582500	-12.714280	 2.757842	 47.103720	-11.079340	 40.626920	 2.853240	 5.074763	 45.582580	-26.488930	-10.909650	-10.718740
-0.409970	 1.003680	 0.081870	 7.751603	 12.734280	-11.915130	 24.194970	-21.519860	 28.616980	-0.144384	 28.536850	 0.035367	 4.658315	 18.345760	 12.294110	 0.000304	-5.341088	 2.122510	-2.565704	-28.468620	 4.097307	 0.285724	 42.077020	-0.110019	-7.023142	-27.145630	-16.142680	-0.000228	 0.877763	 0.000170	 2.250168	 2.626248	-2.119241	-0.000000	 0.000000	 0.000000	 4.613957	 5.177434	-4.354060	-5.412985	-5.634341	 1.462493	-74.173670	-9.414433	-28.823440	-24.197440	 12.499100	-30.782530	 41.682120	-1.664069	 8.220245	-2.317932	 2.789992	 1.528386	-2.265259	 2.860864	 1.634690	-14.764140	-12.172230	 1.443280	 50.518220	-18.268180	 36.854770	 4.574009	 2.958562	 45.880460	-27.529420	-6.706191	-15.389540
-0.411970	 1.005800	 0.083550	 7.696850	 12.565940	-11.299990	 24.119410	-21.392010	 28.440900	-0.145380	 27.927030	 0.035084	 4.208179	 20.201650	 11.909640	 0.000105	-6.805614	 2.692999	-2.512371	-27.673980	 4.190425	 0.335336	 41.290660	-0.126487	-7.443458	-26.849570	-17.039800	 0.000001	 0.933964	-0.000409	 2.235752	 2.437840	-2.163158	-0.000000	 0.000000	 0.000000	 4.578981	 4.798406	-4.435617	-5.959423	-5.348798	 3.531225	-72.991530	-12.550420	-23.466380	-23.855480	 14.099660	-29.777550	 43.813710	 0.077124	 7.396641	-2.419759	 3.035077	 1.686217	-2.418645	 3.218597	 1.717353	-13.800170	-11.066290	-0.283900	 55.319040	-25.994450	 30.667270	 5.978909	 3.406537	 49.788590	-28.088250	-0.661899	-16.123960
-0.413570	 1.007690	 0.085150	 7.709658	 12.663670	-11.113080	 24.119030	-21.265320	 28.936390	-0.075744	 27.315060	 0.016577	 4.183116	 21.435860	 11.498130	-0.001332	-7.432512	 2.900224	-2.491075	-27.261450	 3.872593	 0.128289	 40.561960	-0.047019	-7.522025	-26.656470	-17.022010	 0.000330	 0.989310	 0.000124	 2.302336	 2.278383	-2.143718	-0.000000	 0.000000	 0.000000	 4.703790	 4.476377	-4.391987	-6.123173	-5.102739	 5.221097	-71.373770	-13.260920	-18.628440	-23.951920	 15.051630	-29.762290	 44.966920	 0.236325	 5.003430	-2.456863	 2.863922	 1.878285	-2.604916	 3.178100	 1.838227	-13.428860	-10.697350	-1.280102	 55.532100	-30.475900	 26.483900	 5.807417	 4.402888	 51.176110	-28.465470	 2.225299	-17.031080
-0.415700	 1.008930	 0.086320	 7.671778	 12.760490	-10.981600	 24.250970	-21.222620	 29.089080	-0.142781	 26.875270	 0.032543	 4.215146	 22.725320	 11.339260	 0.000412	-8.168695	 3.187430	-2.321650	-26.953250	 3.933378	 0.156131	 39.996820	-0.055758	-7.841635	-26.435810	-17.300950	-0.000684	 1.018029	-0.000163	 2.312039	 2.199367	-2.109358	-0.000000	 0.000000	 0.000000	 4.719129	 4.316516	-4.321204	-5.792494	-4.342184	 5.970048	-71.191170	-13.475710	-14.843290	-24.123610	 15.301440	-30.816600	 45.500220	 0.211257	 4.371431	-2.513873	 2.910918	 1.940866	-2.538533	 3.071856	 1.874998	-13.208290	-9.898539	-1.826902	 55.271160	-33.080730	 21.366390	 6.053918	 5.060154	 54.094160	-29.268570	 2.437253	-19.757420
-0.415700	 1.008930	 0.086320	 7.671778	 12.760490	-10.981600	 24.250970	-21.222620	 29.089080	-0.142781	 26.875270	 0.032543	 4.215146	 22.725320	 11.339260	 0.000412	-8.168695	 3.187430	-2.321650	-26.953250	 3.933378	 0.156131	 39.996820	-0.055758	-7.841635	-26.435810	-17.300950	-0.000684	 1.018029	-0.000163	 2.312039	 2.199367	-2.109358	-0.000000	 0.000000	 0.000000	 4.719129	 4.316516	-4.321204	-5.792494	-4.342184	 5.970048	-71.191170	-13.475710	-14.843290	-24.123610	 15.301440	-30.816600	 45.500220	 0.211257	 4.371431	-2.513873	 2.910918	 1.940866	-2.538533	 3.071856	 1.874998	-13.208290	-9.898539	-1.826902	 55.271160	-33.080730	 21.366390	 6.053918	 5.060154	 54.094160	-29.268570	 2.437253	-19.757420
-0.422350	 1.011090	 0.089620	 7.333625	 12.856030	-9.894790	 24.529790	-21.305150	 28.888710	-0.020900	 25.819790	 0.002367	 3.736825	 25.844490	 11.184110	 0.001522	-9.904766	 3.856507	-1.721464	-25.980970	 3.887125	 0.175273	 38.847270	-0.060806	-8.845789	-26.034260	-18.525690	 0.000606	 1.093214	 0.000454	 2.404136	 2.042752	-2.307248	-0.000000	 0.000000	 0.000000	 4.903228	 3.992109	-4.712764	-5.420513	-2.826265	 7.485755	-72.088710	-14.231890	-7.665983	-23.124050	 17.492190	-33.065650	 43.637330	 2.486729	 0.629122	-2.341103	 2.965508	 1.932585	-2.413563	 3.120869	 2.242933	-11.901510	-8.700510	-2.617617	 55.974630	-36.717010	 9.146554	 6.926157	 6.324868	 59.862590	-27.794980	 1.166774	-19.634450
-0.422350	 1.011090	 0.089620	 7.333625	 12.856030	-9.894790	 24.529790	-21.305150	 28.888710	-0.020900	 25.819790	 0.002367	 3.736825	 25.844490	 11.184110	 0.001522	-9.904766	 3.856507	-1.721464	-25.980970	 3.887125	 0.175273	 38.847270	-0.060806	-8.845789	-26.034260	-18.525690	 0.000606	 1.093214	 0.000454	 2.404136	 2.042752	-2.307248	-0.000000	 0.000000	 0.000000	 4.903228	 3.992109	-4.712764	-5.420513	-2.826265	 7.485755	-72.088710	-14.231890	-7.665983	-23.124050	 17.492190	-33.065650	 43.637330	 2.486729	 0.629122	-2.341103	 2.965508	 1.932585	-2.413563	 3.120869	 2.242933	-11.901510	-8.700510	-2.617617	 55.974630	-36.717010	 9.146554	 6.926157	 6.324868	 59.862590	-27.794980	 1.166774	-19.634450
-0.422350	 1.011090	 0.089620	 7.333625	 12.856030	-9.894790	 24.529790	-21.305150	 28.888710	-0.020900	 25.819790	 0.002367	 3.736825	 25.844490	 11.184110	 0.001522	-9.904766	 3.856507	-1.721464	-25.980970	 3.887125	 0.175273	 38.847270	-0.060806	-8.845789	-26.034260	-18.525690	 0.000606	 1.093214	 0.000454	 2.404136	 2.042752	-2.307248	-0.000000	 0.000000	 0.000000	 4.903228	 3.992109	-4.712764	-5.420513	-2.826265	 7.485755	-72.088710	-14.231890	-7.665983	-23.124050	 17.492190	-33.065650	 43.637330	 2.486729	 0.629122	-2.341103	 2.965508	 1.932585	-2.413563	 3.120869	 2.242933	-11.901510	-8.700510	-2.617617	 55.974630	-36.717010	 9.146554	 6.926157	 6.324868	 59.862590	-27.794980	 1.166774	-19.634450
-0.422350	 1.011090	 0.089620	 7.333625	 12.856030	-9.894790	 24.529790	-21.305150	 28.888710	-0.020900	 25.819790	 0.002367	 3.736825	 25.844490	 11.184110	 0.001522	-9.904766	 3.856507	-1.721464	-25.980970	 3.887125	 0.175273	 38.847270	-0.060806	-8.845789	-26.034260	-18.525690	 0.000606	 1.093214	 0.000454	 2.404136	 2.042752	-2.307248	-0.000000	 0.000000	 0.000000	 4.903228	 3.992109	-4.712764	-5.420513	-2.826265	 7.485755	-72.088710	-14.231890	-7.665983	-23.124050	 17.492190	-33.065650	 43.637330	 2.486729	 0.629122	-2.341103	 2.965508	 1.932585	-2.413563	 3.120869	 2.242933	-11.901510	-8.700510	-2.617617	 55.974630	-36.717010	 9.146554	 6.926157	 6.324868	 59.862590	-27.794980	 1.166774	-19.634450
-0.422350	 1.011090	 0.089620	 7.333625	 12.856030	-9.894790	 24.529790	-21.305150	 28.888710	-0.020900	 25.819790	 0.002367	 3.736825	 25.844490	 11.184110	 0.001522	-9.904766	 3.856507	-1.721464	-25.980970	 3.887125	 0.175273	 38.847270	-0.060806	-8.845789	-26.034260	-18.525690	 0.000606	 1.093214	 0.000454	 2.404136	 2.042752	-2.307248	-0.000000	 0.000000	 0.000000	 4.903228	 3.992109	-4.712764	-5.420513	-2.826265	 7.485755	-72.088710	-14.231890	-7.665983	-23.124050	 17.492190	-33.065650	 43.637330	 2.486729	 0.629122	-2.341103	 2.965508	 1.932585	-2.413563	 3.120869	 2.242933	-11.901510	-8.700510	-2.617617	 55.974630	-36.717010	 9.146554	 6.926157	 6.324868	 59.862590	-27.794980	 1.166774	-19.634450
-0.422350	 1.011090	 0.089620	 7.333625	 12.856030	-9.894790	 24.529790	-21.305150	 28.888710	-0.020900	 25.819790	 0.002367	 3.736825	 25.844490	 11.184110	 0.001522	-9.904766	 3.856507	-1.721464	-25.980970	 3.887125	 0.175273	 38.847270	-0.060806	-8.845789	-26.034260	-18.525690	 0.000606	 1.093214	 0.000454	 2.404136	 2.042752	-2.307248	-0.000000	 0.000000	 0.000000	 4.903228	 3.992109	-4.712764	-5.420513	-2.826265	 7.485755	-72.088710	-14.231890	-7.665983	-23.124050	 17.492190	-33.065650	 43.637330	 2.486729	 0.629122	-2.341103	 2.965508	 1.932585	-2.413563	 3.120869	 2.242933	-11.901510	-8.700510	-2.617617	 55.974630	-36.717010	 9.146554	 6.926157	 6.324868	 59.862590	-27.794980	 1.166774	-19.634450
-0.422350	 1.011090	 0.089620	 7.333625	 12.856030	-9.894790	 24.529790	-21.305150	 28.888710	-0.020900	 25.819790	 0.002367	 3.736825	 25.844490	 11.184110	 0.001522	-9.904766	 3.856507	-1.721464	-25.980970	 3.887125	 0.175273	 38.847270	-0.060806	-8.845789	-26.034260	-18.525690	 0.000606	 1.093214	 0.000454	 2.404136	 2.042752	-2.307248	-0.000000	 0.000000	 0.000000	 4.903228	 3.992109	-4.712764	-5.420513	-2.826265	 7.485755	-72.088710	-14.231890	-7.665983	-23.124050	 17.492190	-33.065650	 43.637330	 2.486729	 0.629122	-2.341103	 2.965508	 1.932585	-2.413563	 3.120869	 2.242933	-11.901510	-8.700510	-2.617617	 55.974630	-36.717010	 9.146554	 6.926157	 6.324868	 59.862590	-27.794980	 1.166774	-19.634450
